<svg width="15" height="15" viewBox="0 0 15 15" fill="none" xmlns="http://www.w3.org/2000/svg">
<path d="M13.924 6.84053L8.01111 2.17502C7.8659 2.06176 7.68497 2 7.49841 2C7.31186 2 7.13093 2.06176 6.98571 2.17502L1.07481 6.84053C1.03311 6.87339 1.0066 6.92091 1.00107 6.97265C0.995552 7.02439 1.01148 7.07613 1.04536 7.11654L1.30183 7.42127C1.33568 7.46141 1.38455 7.487 1.43782 7.49248C1.49108 7.49795 1.54443 7.48286 1.58624 7.45049L2.62383 6.63083V12.5978C2.62383 12.702 2.66664 12.8019 2.74283 12.8756C2.81903 12.9493 2.92237 12.9907 3.03013 12.9907H6.28053C6.38829 12.9907 6.49163 12.9493 6.56783 12.8756C6.64402 12.8019 6.68683 12.702 6.68683 12.5978V9.4547L8.31203 9.46206V12.6071C8.31203 12.7113 8.35484 12.8112 8.43103 12.8849C8.50723 12.9586 8.61057 13 8.71833 13L11.9687 12.9919C12.0765 12.9919 12.1798 12.9505 12.256 12.8768C12.3322 12.8031 12.375 12.7032 12.375 12.599V6.63083L13.4126 7.45049C13.4544 7.48333 13.508 7.49877 13.5616 7.49343C13.6151 7.48809 13.6643 7.4624 13.6983 7.42201L13.9548 7.11727C13.9716 7.09717 13.9841 7.07405 13.9917 7.04925C13.9993 7.02445 14.0017 6.99845 13.9988 6.97273C13.996 6.94702 13.9879 6.92211 13.9751 6.89942C13.9622 6.87674 13.9449 6.85673 13.924 6.84053ZM11.5596 12.2081H11.5622L9.12438 12.2155V9.0682C9.12404 8.96431 9.0813 8.86475 9.00546 8.79117C8.92961 8.7176 8.82678 8.67596 8.71935 8.67531L6.28155 8.66868C6.22808 8.66852 6.17511 8.67856 6.12567 8.69823C6.07623 8.71791 6.03129 8.74682 5.99343 8.78332C5.95556 8.81982 5.92552 8.86318 5.90503 8.91093C5.88453 8.95868 5.87398 9.00987 5.87398 9.06157V12.2081H3.43643V5.98969L7.49943 2.7835L11.5624 5.98969L11.5596 12.2081Z" fill="#999999"/>
</svg>
